<svg xmlns="http://www.w3.org/2000/svg" viewBox="0 0 120 120">
<defs><radialGradient id="g" cx="0.5" cy="0.4" r="0.7">
<stop offset="0" stop-color="#2FB89A" stop-opacity="1"/><stop offset="1" stop-color="#2FB89A" stop-opacity="0.72"/>
</radialGradient>
<filter id="s" x="-40%" y="-40%" width="180%" height="180%"><feGaussianBlur stdDeviation="5"/></filter></defs>
<circle cx="60" cy="60" r="54" fill="#1E1E22"/>
<path d="M60 12 l12 28 30 3 -23 20 7 30 -26 -16 -26 16 7 -30 -23 -20 30 -3 z" fill="#2FB89A" opacity="0.28" filter="url(#s)"/>
<path d="M60 16 l11 26 28 3 -21 19 6 28 -24 -15 -24 15 6 -28 -21 -19 28 -3 z" fill="url(#g)"/>
<circle cx="52" cy="58" r="4" fill="#121212"/><circle cx="68" cy="58" r="4" fill="#121212"/>
<path d="M50 70 q 10 8 20 0" stroke="#121212" stroke-width="3.5" fill="none" stroke-linecap="round"/>
</svg>