<svg xmlns="http://www.w3.org/2000/svg" viewBox="0 0 1080 1080" font-family="Nunito, Trebuchet MS, sans-serif">
<defs>
<linearGradient id="atmos" x1="0" y1="0" x2="0" y2="1">
  <stop offset="0" stop-color="#0B2740"/>
  <stop offset="1" stop-color="#071726"/>
</linearGradient>
<radialGradient id="key" cx="0.5" cy="0.2777777777777778" r="0.62">
  <stop offset="0" stop-color="#0077B6" stop-opacity="0.55"/>
  <stop offset="0.35" stop-color="#0077B6" stop-opacity="0.16"/>
  <stop offset="0.7" stop-color="#0077B6" stop-opacity="0"/>
</radialGradient>
<linearGradient id="ray" x1="0" y1="0" x2="0" y2="1">
  <stop offset="0" stop-color="#0077B6" stop-opacity="0.5"/>
  <stop offset="1" stop-color="#0077B6" stop-opacity="0"/>
</linearGradient>
<filter id="grain"><feTurbulence type="fractalNoise" baseFrequency="0.9" numOctaves="2" stitchTiles="stitch"/><feColorMatrix type="saturate" values="0"/></filter>
<filter id="soft" x="-40%" y="-40%" width="180%" height="180%"><feGaussianBlur stdDeviation="26"/></filter>
</defs>
<rect width="1080" height="1080" fill="url(#atmos)"/>
<ellipse cx="540" cy="300" rx="620" ry="620" fill="url(#key)"/>
<g opacity="0.10"><polygon points="540,300 280,1180 420,1180" fill="url(#ray)"/><polygon points="540,300 460,1180 600,1180" fill="url(#ray)"/><polygon points="540,300 640,1180 780,1180" fill="url(#ray)"/><polygon points="540,300 820,1180 960,1180" fill="url(#ray)"/></g>
<rect x="140" y="0" width="7" height="1080" fill="#F5F1E8" opacity="0.06"/><rect x="320" y="0" width="7" height="1080" fill="#F5F1E8" opacity="0.06"/><rect x="500" y="0" width="7" height="1080" fill="#F5F1E8" opacity="0.06"/><rect x="680" y="0" width="7" height="1080" fill="#F5F1E8" opacity="0.06"/><rect x="860" y="0" width="7" height="1080" fill="#F5F1E8" opacity="0.06"/><rect x="1040" y="0" width="7" height="1080" fill="#F5F1E8" opacity="0.06"/>
<ellipse cx="540" cy="470" rx="122" ry="98" fill="url(#key)"/>
<ellipse cx="540" cy="470" rx="118" ry="94" fill="#6B3FA0" opacity="0.9"/>
<circle cx="505" cy="452" r="14" fill="#121212"/><circle cx="575" cy="452" r="14" fill="#121212"/>
<path d="M470 560 q 10 74 -30 116 M512 570 q 5 78 -12 124 M568 570 q -5 78 12 124 M610 560 q -10 74 30 116" stroke="#6B3FA0" stroke-width="26" fill="none" stroke-linecap="round"/>
<rect x="0" y="720" width="1080" height="360" fill="#121212" opacity="0.55"/>
<text x="64" y="728" font-size="70" font-weight="800" letter-spacing="-1" fill="#7FD4FF"><tspan x="64" dy="0">He can imitate</tspan><tspan x="64" dy="78">anyone. Except</tspan><tspan x="64" dy="78">himself.</tspan></text>
<text x="64" y="1002" font-size="25" fill="#F5F1E8" opacity="0.72">THE DEEP END · in cinemas this autumn</text>
<text x="946" y="1002" font-size="30" font-weight="800" fill="#F9D71C">PAS</text>
<text x="828" y="1030" font-size="14" fill="#F5F1E8" opacity="0.4">unofficial concept</text>

<rect width="1080" height="1080" filter="url(#grain)" opacity="0.06"/>
</svg>