<svg xmlns="http://www.w3.org/2000/svg" viewBox="0 0 1080 1080" font-family="Nunito, Trebuchet MS, sans-serif">
<defs>
<linearGradient id="atmos" x1="0" y1="0" x2="0" y2="1">
  <stop offset="0" stop-color="#141525"/>
  <stop offset="1" stop-color="#0A0A0E"/>
</linearGradient>
<radialGradient id="key" cx="0.7518518518518519" cy="0.6111111111111112" r="0.62">
  <stop offset="0" stop-color="#F9D71C" stop-opacity="0.55"/>
  <stop offset="0.35" stop-color="#F9D71C" stop-opacity="0.16"/>
  <stop offset="0.7" stop-color="#F9D71C" stop-opacity="0"/>
</radialGradient>
<linearGradient id="ray" x1="0" y1="0" x2="0" y2="1">
  <stop offset="0" stop-color="#F9D71C" stop-opacity="0.5"/>
  <stop offset="1" stop-color="#F9D71C" stop-opacity="0"/>
</linearGradient>
<filter id="grain"><feTurbulence type="fractalNoise" baseFrequency="0.9" numOctaves="2" stitchTiles="stitch"/><feColorMatrix type="saturate" values="0"/></filter>
<filter id="soft" x="-40%" y="-40%" width="180%" height="180%"><feGaussianBlur stdDeviation="26"/></filter>
</defs>
<rect width="1080" height="1080" fill="url(#atmos)"/>
<ellipse cx="812" cy="660" rx="620" ry="620" fill="url(#key)"/>
<g opacity="0.10"><polygon points="812,660 552,1180 692,1180" fill="url(#ray)"/><polygon points="812,660 732,1180 872,1180" fill="url(#ray)"/><polygon points="812,660 912,1180 1052,1180" fill="url(#ray)"/><polygon points="812,660 1092,1180 1232,1180" fill="url(#ray)"/></g>
<path d="M0 760 Q 270 690 540 745 T 1080 730 L1080 1080 L0 1080 Z" fill="#0B0B0E"/><circle cx="812" cy="690" r="16" fill="#F9D71C" filter="url(#soft)"/>
<circle cx="812" cy="690" r="64" fill="#F9D71C" opacity="0.14" filter="url(#soft)"/>
<rect x="0" y="720" width="1080" height="360" fill="#121212" opacity="0.55"/>
<text x="64" y="728" font-size="70" font-weight="800" letter-spacing="-1" fill="#F5F1E8"><tspan x="64" dy="0">You were never</tspan><tspan x="64" dy="78">really afraid</tspan><tspan x="64" dy="78">of the dark.</tspan></text>
<text x="64" y="1002" font-size="25" fill="#F5F1E8" opacity="0.72">LUMA · evening showtimes from opening night</text>
<text x="946" y="1002" font-size="30" font-weight="800" fill="#F9D71C">PAS</text>
<text x="828" y="1030" font-size="14" fill="#F5F1E8" opacity="0.4">unofficial concept</text>

<rect width="1080" height="1080" filter="url(#grain)" opacity="0.06"/>
</svg>