<svg xmlns="http://www.w3.org/2000/svg" viewBox="0 0 1080 1080" font-family="Fredoka, Trebuchet MS, sans-serif">
<rect width="1080" height="1080" fill="#101629"/>
<circle cx="97" cy="61" r="2.2" fill="#F5F1E8" opacity="0.4"/><circle cx="194" cy="122" r="2.9" fill="#F5F1E8" opacity="0.55"/><circle cx="291" cy="183" r="1.5" fill="#F5F1E8" opacity="0.7"/><circle cx="388" cy="244" r="2.2" fill="#F5F1E8" opacity="0.25"/><circle cx="485" cy="305" r="2.9" fill="#F5F1E8" opacity="0.4"/><circle cx="582" cy="366" r="1.5" fill="#F5F1E8" opacity="0.55"/><circle cx="679" cy="427" r="2.2" fill="#F5F1E8" opacity="0.7"/><circle cx="776" cy="488" r="2.9" fill="#F5F1E8" opacity="0.25"/><circle cx="873" cy="29" r="1.5" fill="#F5F1E8" opacity="0.4"/><circle cx="970" cy="90" r="2.2" fill="#F5F1E8" opacity="0.55"/><circle cx="1067" cy="151" r="2.9" fill="#F5F1E8" opacity="0.7"/><circle cx="84" cy="212" r="1.5" fill="#F5F1E8" opacity="0.25"/><circle cx="181" cy="273" r="2.2" fill="#F5F1E8" opacity="0.4"/><circle cx="278" cy="334" r="2.9" fill="#F5F1E8" opacity="0.55"/><circle cx="375" cy="395" r="1.5" fill="#F5F1E8" opacity="0.7"/><circle cx="472" cy="456" r="2.2" fill="#F5F1E8" opacity="0.25"/><circle cx="569" cy="517" r="2.9" fill="#F5F1E8" opacity="0.4"/><circle cx="666" cy="58" r="1.5" fill="#F5F1E8" opacity="0.55"/><circle cx="763" cy="119" r="2.2" fill="#F5F1E8" opacity="0.7"/><circle cx="860" cy="180" r="2.9" fill="#F5F1E8" opacity="0.25"/><circle cx="957" cy="241" r="1.5" fill="#F5F1E8" opacity="0.4"/><circle cx="1054" cy="302" r="2.2" fill="#F5F1E8" opacity="0.55"/><circle cx="71" cy="363" r="2.9" fill="#F5F1E8" opacity="0.7"/><circle cx="168" cy="424" r="1.5" fill="#F5F1E8" opacity="0.25"/><circle cx="265" cy="485" r="2.2" fill="#F5F1E8" opacity="0.4"/><circle cx="362" cy="26" r="2.9" fill="#F5F1E8" opacity="0.55"/><circle cx="459" cy="87" r="1.5" fill="#F5F1E8" opacity="0.7"/><circle cx="556" cy="148" r="2.2" fill="#F5F1E8" opacity="0.25"/><circle cx="653" cy="209" r="2.9" fill="#F5F1E8" opacity="0.4"/><circle cx="750" cy="270" r="1.5" fill="#F5F1E8" opacity="0.55"/><circle cx="847" cy="331" r="2.2" fill="#F5F1E8" opacity="0.7"/><circle cx="944" cy="392" r="2.9" fill="#F5F1E8" opacity="0.25"/><circle cx="1041" cy="453" r="1.5" fill="#F5F1E8" opacity="0.4"/><circle cx="58" cy="514" r="2.2" fill="#F5F1E8" opacity="0.55"/><circle cx="155" cy="55" r="2.9" fill="#F5F1E8" opacity="0.7"/><circle cx="252" cy="116" r="1.5" fill="#F5F1E8" opacity="0.25"/><circle cx="349" cy="177" r="2.2" fill="#F5F1E8" opacity="0.4"/><circle cx="446" cy="238" r="2.9" fill="#F5F1E8" opacity="0.55"/><circle cx="543" cy="299" r="1.5" fill="#F5F1E8" opacity="0.7"/><circle cx="820" cy="700" r="18" fill="#FFC83D"/><circle cx="820" cy="700" r="60" fill="#FFC83D" opacity="0.18"/><path d="M20 1080 q 8 -70 2 -110" stroke="#0B102040" stroke-width="6" fill="none" stroke-opacity="0.9"/><path d="M62 1080 q 8 -66 2 -104" stroke="#0B102040" stroke-width="6" fill="none" stroke-opacity="0.9"/><path d="M104 1080 q 8 -62 2 -98" stroke="#0B102040" stroke-width="6" fill="none" stroke-opacity="0.9"/><path d="M146 1080 q 8 -108 2 -92" stroke="#0B102040" stroke-width="6" fill="none" stroke-opacity="0.9"/><path d="M188 1080 q 8 -104 2 -146" stroke="#0B102040" stroke-width="6" fill="none" stroke-opacity="0.9"/><path d="M230 1080 q 8 -100 2 -140" stroke="#0B102040" stroke-width="6" fill="none" stroke-opacity="0.9"/><path d="M272 1080 q 8 -96 2 -134" stroke="#0B102040" stroke-width="6" fill="none" stroke-opacity="0.9"/><path d="M314 1080 q 8 -92 2 -128" stroke="#0B102040" stroke-width="6" fill="none" stroke-opacity="0.9"/><path d="M356 1080 q 8 -88 2 -122" stroke="#0B102040" stroke-width="6" fill="none" stroke-opacity="0.9"/><path d="M398 1080 q 8 -84 2 -116" stroke="#0B102040" stroke-width="6" fill="none" stroke-opacity="0.9"/><path d="M440 1080 q 8 -80 2 -110" stroke="#0B102040" stroke-width="6" fill="none" stroke-opacity="0.9"/><path d="M482 1080 q 8 -76 2 -104" stroke="#0B102040" stroke-width="6" fill="none" stroke-opacity="0.9"/><path d="M524 1080 q 8 -72 2 -98" stroke="#0B102040" stroke-width="6" fill="none" stroke-opacity="0.9"/><path d="M566 1080 q 8 -68 2 -92" stroke="#0B102040" stroke-width="6" fill="none" stroke-opacity="0.9"/><path d="M608 1080 q 8 -64 2 -146" stroke="#0B102040" stroke-width="6" fill="none" stroke-opacity="0.9"/><path d="M650 1080 q 8 -60 2 -140" stroke="#0B102040" stroke-width="6" fill="none" stroke-opacity="0.9"/><path d="M692 1080 q 8 -106 2 -134" stroke="#0B102040" stroke-width="6" fill="none" stroke-opacity="0.9"/><path d="M734 1080 q 8 -102 2 -128" stroke="#0B102040" stroke-width="6" fill="none" stroke-opacity="0.9"/><path d="M776 1080 q 8 -98 2 -122" stroke="#0B102040" stroke-width="6" fill="none" stroke-opacity="0.9"/><path d="M818 1080 q 8 -94 2 -116" stroke="#0B102040" stroke-width="6" fill="none" stroke-opacity="0.9"/><path d="M860 1080 q 8 -90 2 -110" stroke="#0B102040" stroke-width="6" fill="none" stroke-opacity="0.9"/><path d="M902 1080 q 8 -86 2 -104" stroke="#0B102040" stroke-width="6" fill="none" stroke-opacity="0.9"/><path d="M944 1080 q 8 -82 2 -98" stroke="#0B102040" stroke-width="6" fill="none" stroke-opacity="0.9"/><path d="M986 1080 q 8 -78 2 -92" stroke="#0B102040" stroke-width="6" fill="none" stroke-opacity="0.9"/><path d="M1028 1080 q 8 -74 2 -146" stroke="#0B102040" stroke-width="6" fill="none" stroke-opacity="0.9"/><path d="M1070 1080 q 8 -70 2 -140" stroke="#0B102040" stroke-width="6" fill="none" stroke-opacity="0.9"/>
<text x="60" y="748" font-size="68" font-weight="700" fill="#F5F1E8"><tspan x="60" dy="0">You were never</tspan><tspan x="60" dy="76">really afraid of</tspan><tspan x="60" dy="76">the dark.</tspan></text>
<text x="60" y="1000" font-size="26" fill="#F5F1E8" opacity="0.75">LUMA · evening showtimes from opening night</text>
<text x="940" y="1002" font-size="30" font-weight="700" fill="#FFC83D">PAS</text>
<text x="826" y="1030" font-size="15" fill="#F5F1E8" opacity="0.45">unofficial concept</text>
</svg>