<svg xmlns="http://www.w3.org/2000/svg" viewBox="0 0 1080 1080" font-family="Nunito, Trebuchet MS, sans-serif">
<defs>
<linearGradient id="atmos" x1="0" y1="0" x2="0" y2="1">
  <stop offset="0" stop-color="#171826"/>
  <stop offset="1" stop-color="#0C0C10"/>
</linearGradient>
<radialGradient id="key" cx="0.5" cy="0.3888888888888889" r="0.62">
  <stop offset="0" stop-color="#F9D71C" stop-opacity="0.55"/>
  <stop offset="0.35" stop-color="#F9D71C" stop-opacity="0.16"/>
  <stop offset="0.7" stop-color="#F9D71C" stop-opacity="0"/>
</radialGradient>
<linearGradient id="ray" x1="0" y1="0" x2="0" y2="1">
  <stop offset="0" stop-color="#F9D71C" stop-opacity="0.5"/>
  <stop offset="1" stop-color="#F9D71C" stop-opacity="0"/>
</linearGradient>
<filter id="grain"><feTurbulence type="fractalNoise" baseFrequency="0.9" numOctaves="2" stitchTiles="stitch"/><feColorMatrix type="saturate" values="0"/></filter>
<filter id="soft" x="-40%" y="-40%" width="180%" height="180%"><feGaussianBlur stdDeviation="26"/></filter>
</defs>
<rect width="1080" height="1080" fill="url(#atmos)"/>
<ellipse cx="540" cy="420" rx="620" ry="620" fill="url(#key)"/>
<g opacity="0.10"><polygon points="540,420 280,1180 420,1180" fill="url(#ray)"/><polygon points="540,420 460,1180 600,1180" fill="url(#ray)"/><polygon points="540,420 640,1180 780,1180" fill="url(#ray)"/><polygon points="540,420 820,1180 960,1180" fill="url(#ray)"/></g>
<circle cx="540" cy="420" r="150" fill="#F9D71C" opacity="0.10" filter="url(#soft)"/>
<circle cx="540" cy="420" r="40" fill="#F9D71C" filter="url(#soft)"/>
<circle cx="540" cy="420" r="19" fill="#FFF3C4"/>
<path d="M528 405 q -20 -20 -6 -34 q 18 -8 20 16 z" fill="#F5F1E8" opacity="0.85"/>
<path d="M552 405 q 20 -20 6 -34 q -18 -8 -20 16 z" fill="#F5F1E8" opacity="0.85"/>
<path d="M20 1080 q 6 -90 2 -110" stroke="#0A0A0B" stroke-width="7" fill="none"/><path d="M60 1080 q 6 -70 2 -110" stroke="#0A0A0B" stroke-width="7" fill="none"/><path d="M100 1080 q 6 -110 2 -110" stroke="#0A0A0B" stroke-width="7" fill="none"/><path d="M140 1080 q 6 -90 2 -110" stroke="#0A0A0B" stroke-width="7" fill="none"/><path d="M180 1080 q 6 -70 2 -110" stroke="#0A0A0B" stroke-width="7" fill="none"/><path d="M220 1080 q 6 -110 2 -110" stroke="#0A0A0B" stroke-width="7" fill="none"/><path d="M260 1080 q 6 -90 2 -110" stroke="#0A0A0B" stroke-width="7" fill="none"/><path d="M300 1080 q 6 -70 2 -110" stroke="#0A0A0B" stroke-width="7" fill="none"/><path d="M340 1080 q 6 -110 2 -110" stroke="#0A0A0B" stroke-width="7" fill="none"/><path d="M380 1080 q 6 -90 2 -110" stroke="#0A0A0B" stroke-width="7" fill="none"/><path d="M420 1080 q 6 -70 2 -110" stroke="#0A0A0B" stroke-width="7" fill="none"/><path d="M460 1080 q 6 -110 2 -110" stroke="#0A0A0B" stroke-width="7" fill="none"/><path d="M500 1080 q 6 -90 2 -110" stroke="#0A0A0B" stroke-width="7" fill="none"/><path d="M540 1080 q 6 -70 2 -110" stroke="#0A0A0B" stroke-width="7" fill="none"/><path d="M580 1080 q 6 -110 2 -110" stroke="#0A0A0B" stroke-width="7" fill="none"/><path d="M620 1080 q 6 -90 2 -110" stroke="#0A0A0B" stroke-width="7" fill="none"/><path d="M660 1080 q 6 -70 2 -110" stroke="#0A0A0B" stroke-width="7" fill="none"/><path d="M700 1080 q 6 -110 2 -110" stroke="#0A0A0B" stroke-width="7" fill="none"/><path d="M740 1080 q 6 -90 2 -110" stroke="#0A0A0B" stroke-width="7" fill="none"/><path d="M780 1080 q 6 -70 2 -110" stroke="#0A0A0B" stroke-width="7" fill="none"/><path d="M820 1080 q 6 -110 2 -110" stroke="#0A0A0B" stroke-width="7" fill="none"/><path d="M860 1080 q 6 -90 2 -110" stroke="#0A0A0B" stroke-width="7" fill="none"/><path d="M900 1080 q 6 -70 2 -110" stroke="#0A0A0B" stroke-width="7" fill="none"/><path d="M940 1080 q 6 -110 2 -110" stroke="#0A0A0B" stroke-width="7" fill="none"/><path d="M980 1080 q 6 -90 2 -110" stroke="#0A0A0B" stroke-width="7" fill="none"/><path d="M1020 1080 q 6 -70 2 -110" stroke="#0A0A0B" stroke-width="7" fill="none"/><path d="M1060 1080 q 6 -110 2 -110" stroke="#0A0A0B" stroke-width="7" fill="none"/>
<rect x="0" y="720" width="1080" height="360" fill="#121212" opacity="0.55"/>
<text x="64" y="728" font-size="70" font-weight="800" letter-spacing="-1" fill="#F9D71C"><tspan x="64" dy="0">One small</tspan><tspan x="64" dy="78">light. One long</tspan><tspan x="64" dy="78">night.</tspan></text>
<text x="64" y="1002" font-size="25" fill="#F5F1E8" opacity="0.72">LUMA · in cinemas this summer</text>
<text x="946" y="1002" font-size="30" font-weight="800" fill="#F9D71C">PAS</text>
<text x="828" y="1030" font-size="14" fill="#F5F1E8" opacity="0.4">unofficial concept</text>
<text x="150" y="150" font-size="12" fill="#F5F1E8" opacity="0.10" font-family="monospace">A113</text>
<rect width="1080" height="1080" filter="url(#grain)" opacity="0.06"/>
</svg>