<svg xmlns="http://www.w3.org/2000/svg" viewBox="0 0 1080 1080" font-family="Nunito, Trebuchet MS, sans-serif">
<defs>
<linearGradient id="atmos" x1="0" y1="0" x2="0" y2="1">
  <stop offset="0" stop-color="#171826"/>
  <stop offset="1" stop-color="#0C0C10"/>
</linearGradient>
<radialGradient id="key" cx="0.5" cy="0.5" r="0.62">
  <stop offset="0" stop-color="#F9D71C" stop-opacity="0.55"/>
  <stop offset="0.35" stop-color="#F9D71C" stop-opacity="0.16"/>
  <stop offset="0.7" stop-color="#F9D71C" stop-opacity="0"/>
</radialGradient>
<linearGradient id="ray" x1="0" y1="0" x2="0" y2="1">
  <stop offset="0" stop-color="#F9D71C" stop-opacity="0.5"/>
  <stop offset="1" stop-color="#F9D71C" stop-opacity="0"/>
</linearGradient>
<filter id="grain"><feTurbulence type="fractalNoise" baseFrequency="0.9" numOctaves="2" stitchTiles="stitch"/><feColorMatrix type="saturate" values="0"/></filter>
<filter id="soft" x="-40%" y="-40%" width="180%" height="180%"><feGaussianBlur stdDeviation="26"/></filter>
</defs>
<rect width="1080" height="1080" fill="url(#atmos)"/>
<ellipse cx="540" cy="540" rx="620" ry="620" fill="url(#key)"/>
<g opacity="0.10"><polygon points="540,540 280,1180 420,1180" fill="url(#ray)"/><polygon points="540,540 460,1180 600,1180" fill="url(#ray)"/><polygon points="540,540 640,1180 780,1180" fill="url(#ray)"/><polygon points="540,540 820,1180 960,1180" fill="url(#ray)"/></g>
<rect x="372" y="470" width="336" height="300" rx="38" fill="#111318"/>
<path d="M420 470 L540 336 L660 470 Z" fill="#F9D71C" opacity="0.92" filter="url(#soft)"/>
<path d="M420 470 L540 336 L660 470 Z" fill="#F9D71C"/>
<circle cx="540" cy="596" r="66" fill="#FFF0B8" filter="url(#soft)"/>
<circle cx="540" cy="596" r="120" fill="#F9D71C" opacity="0.12" filter="url(#soft)"/>
<rect x="0" y="720" width="1080" height="360" fill="#121212" opacity="0.55"/>
<text x="64" y="728" font-size="70" font-weight="800" letter-spacing="-1" fill="#F5F1E8"><tspan x="64" dy="0">Nightlights</tspan><tspan x="64" dy="78">sold</tspan><tspan x="64" dy="78">separately.</tspan></text>
<text x="64" y="1002" font-size="25" fill="#F5F1E8" opacity="0.72">LUMA · family tickets at participating cinemas</text>
<text x="946" y="1002" font-size="30" font-weight="800" fill="#F9D71C">PAS</text>
<text x="828" y="1030" font-size="14" fill="#F5F1E8" opacity="0.4">unofficial concept</text>

<rect width="1080" height="1080" filter="url(#grain)" opacity="0.06"/>
</svg>