<svg xmlns="http://www.w3.org/2000/svg" viewBox="0 0 1080 1080" font-family="Nunito, Trebuchet MS, sans-serif">
<defs>
<linearGradient id="atmos" x1="0" y1="0" x2="0" y2="1">
  <stop offset="0" stop-color="#1B1430"/>
  <stop offset="1" stop-color="#0C0913"/>
</linearGradient>
<radialGradient id="key" cx="0.6481481481481481" cy="0.3333333333333333" r="0.62">
  <stop offset="0" stop-color="#6B3FA0" stop-opacity="0.55"/>
  <stop offset="0.35" stop-color="#6B3FA0" stop-opacity="0.16"/>
  <stop offset="0.7" stop-color="#6B3FA0" stop-opacity="0"/>
</radialGradient>
<linearGradient id="ray" x1="0" y1="0" x2="0" y2="1">
  <stop offset="0" stop-color="#6B3FA0" stop-opacity="0.5"/>
  <stop offset="1" stop-color="#6B3FA0" stop-opacity="0"/>
</linearGradient>
<filter id="grain"><feTurbulence type="fractalNoise" baseFrequency="0.9" numOctaves="2" stitchTiles="stitch"/><feColorMatrix type="saturate" values="0"/></filter>
<filter id="soft" x="-40%" y="-40%" width="180%" height="180%"><feGaussianBlur stdDeviation="26"/></filter>
</defs>
<rect width="1080" height="1080" fill="url(#atmos)"/>
<ellipse cx="700" cy="360" rx="620" ry="620" fill="url(#key)"/>
<g opacity="0.10"><polygon points="700,360 440,1180 580,1180" fill="url(#ray)"/><polygon points="700,360 620,1180 760,1180" fill="url(#ray)"/><polygon points="700,360 800,1180 940,1180" fill="url(#ray)"/><polygon points="700,360 980,1180 1120,1180" fill="url(#ray)"/></g>
<circle cx="700" cy="360" r="222" fill="#EFE7D2" opacity="0.10" filter="url(#soft)"/>
<circle cx="700" cy="360" r="210" fill="#E9E2CE"/>
<path d="M560 430 L640 380 L700 420 L660 340 Z" fill="#1C1630"/>
<path d="M600 400 L680 340 L760 380 L700 300 Z" fill="#241C3B"/>
<rect x="0" y="720" width="1080" height="360" fill="#121212" opacity="0.55"/>
<text x="64" y="728" font-size="70" font-weight="800" letter-spacing="-1" fill="#F5F1E8"><tspan x="64" dy="0">One thousand</tspan><tspan x="64" dy="78">cranes. One</tspan><tspan x="64" dy="78">promise.</tspan></text>
<text x="64" y="1002" font-size="25" fill="#F5F1E8" opacity="0.72">PAPER MOON · in cinemas this winter</text>
<text x="946" y="1002" font-size="30" font-weight="800" fill="#F9D71C">PAS</text>
<text x="828" y="1030" font-size="14" fill="#F5F1E8" opacity="0.4">unofficial concept</text>

<rect width="1080" height="1080" filter="url(#grain)" opacity="0.06"/>
</svg>