<svg xmlns="http://www.w3.org/2000/svg" viewBox="0 0 1080 1080" font-family="Nunito, Trebuchet MS, sans-serif">
<defs>
<linearGradient id="atmos" x1="0" y1="0" x2="0" y2="1">
  <stop offset="0" stop-color="#231710"/>
  <stop offset="1" stop-color="#0E0A07"/>
</linearGradient>
<radialGradient id="key" cx="0.5" cy="0.37037037037037035" r="0.62">
  <stop offset="0" stop-color="#D95D39" stop-opacity="0.55"/>
  <stop offset="0.35" stop-color="#D95D39" stop-opacity="0.16"/>
  <stop offset="0.7" stop-color="#D95D39" stop-opacity="0"/>
</radialGradient>
<linearGradient id="ray" x1="0" y1="0" x2="0" y2="1">
  <stop offset="0" stop-color="#D95D39" stop-opacity="0.5"/>
  <stop offset="1" stop-color="#D95D39" stop-opacity="0"/>
</linearGradient>
<filter id="grain"><feTurbulence type="fractalNoise" baseFrequency="0.9" numOctaves="2" stitchTiles="stitch"/><feColorMatrix type="saturate" values="0"/></filter>
<filter id="soft" x="-40%" y="-40%" width="180%" height="180%"><feGaussianBlur stdDeviation="26"/></filter>
</defs>
<rect width="1080" height="1080" fill="url(#atmos)"/>
<ellipse cx="540" cy="400" rx="620" ry="620" fill="url(#key)"/>
<g opacity="0.10"><polygon points="540,400 280,1180 420,1180" fill="url(#ray)"/><polygon points="540,400 460,1180 600,1180" fill="url(#ray)"/><polygon points="540,400 640,1180 780,1180" fill="url(#ray)"/><polygon points="540,400 820,1180 960,1180" fill="url(#ray)"/></g>
<path d="M0 760 Q 270 690 540 745 T 1080 730 L1080 1080 L0 1080 Z" fill="#0B0B0E"/>
<path d="M540 762 L540 476" stroke="#D95D39" stroke-width="14"/>
<ellipse cx="540" cy="426" rx="26" ry="82" fill="#F9D71C" transform="rotate(0 540 426)" opacity="0.95"/><ellipse cx="540" cy="426" rx="26" ry="82" fill="#F9D71C" transform="rotate(30 540 426)" opacity="0.95"/><ellipse cx="540" cy="426" rx="26" ry="82" fill="#F9D71C" transform="rotate(60 540 426)" opacity="0.95"/><ellipse cx="540" cy="426" rx="26" ry="82" fill="#F9D71C" transform="rotate(90 540 426)" opacity="0.95"/><ellipse cx="540" cy="426" rx="26" ry="82" fill="#F9D71C" transform="rotate(120 540 426)" opacity="0.95"/><ellipse cx="540" cy="426" rx="26" ry="82" fill="#F9D71C" transform="rotate(150 540 426)" opacity="0.95"/><circle cx="540" cy="426" r="44" fill="#6B4A2F"/>
<rect x="0" y="720" width="1080" height="360" fill="#121212" opacity="0.55"/>
<text x="64" y="650" font-size="70" font-weight="800" letter-spacing="-1" fill="#F5F1E8"><tspan x="64" dy="0">For everyone</tspan><tspan x="64" dy="78">who fixes what</tspan><tspan x="64" dy="78">others throw</tspan><tspan x="64" dy="78">away.</tspan></text>
<text x="64" y="1002" font-size="25" fill="#F5F1E8" opacity="0.72">WRENCH &amp; RIVET · in cinemas this spring</text>
<text x="946" y="1002" font-size="30" font-weight="800" fill="#F9D71C">PAS</text>
<text x="828" y="1030" font-size="14" fill="#F5F1E8" opacity="0.4">unofficial concept</text>

<rect width="1080" height="1080" filter="url(#grain)" opacity="0.06"/>
</svg>