<svg xmlns="http://www.w3.org/2000/svg" viewBox="0 0 1080 1080" font-family="Fredoka, Trebuchet MS, sans-serif">
<rect width="1080" height="1080" fill="#101629"/>
<path d="M0 760 L140 700 L260 750 L400 690 L560 740 L700 700 L860 750 L1080 700 L1080 1080 L0 1080 Z" fill="#232B3E"/><path d="M540 760 L540 480" stroke="#3EDBB6" stroke-width="14"/><circle cx="540" cy="430" r="46" fill="#6B4A2F"/><ellipse cx="540" cy="430" rx="26" ry="80" fill="#FFC83D" transform="rotate(0 540 430)" opacity="0.95"/><ellipse cx="540" cy="430" rx="26" ry="80" fill="#FFC83D" transform="rotate(30 540 430)" opacity="0.95"/><ellipse cx="540" cy="430" rx="26" ry="80" fill="#FFC83D" transform="rotate(60 540 430)" opacity="0.95"/><ellipse cx="540" cy="430" rx="26" ry="80" fill="#FFC83D" transform="rotate(90 540 430)" opacity="0.95"/><ellipse cx="540" cy="430" rx="26" ry="80" fill="#FFC83D" transform="rotate(120 540 430)" opacity="0.95"/><ellipse cx="540" cy="430" rx="26" ry="80" fill="#FFC83D" transform="rotate(150 540 430)" opacity="0.95"/><circle cx="540" cy="430" r="44" fill="#6B4A2F"/>
<text x="60" y="672" font-size="68" font-weight="700" fill="#F5F1E8"><tspan x="60" dy="0">For everyone who</tspan><tspan x="60" dy="76">fixes what</tspan><tspan x="60" dy="76">others throw</tspan><tspan x="60" dy="76">away.</tspan></text>
<text x="60" y="1000" font-size="26" fill="#F5F1E8" opacity="0.75">WRENCH &amp; RIVET · in cinemas this spring</text>
<text x="940" y="1002" font-size="30" font-weight="700" fill="#FFC83D">PAS</text>
<text x="826" y="1030" font-size="15" fill="#F5F1E8" opacity="0.45">unofficial concept</text>
</svg>